<mxfile host="65bd71144e">
    <diagram id="mBaL9PmOusREsIfTt9yd" name="Page-1">
        <mxGraphModel dx="1556" dy="1139" grid="1" gridSize="10" guides="1" tooltips="1" connect="1" arrows="1" fold="1" page="1" pageScale="1" pageWidth="1100" pageHeight="850" math="0" shadow="0">
            <root>
                <mxCell id="0"/>
                <mxCell id="1" parent="0"/>
                <mxCell id="9" value="" style="group;movable=0;resizable=0;rotatable=0;deletable=0;editable=0;connectable=0;" parent="1" vertex="1" connectable="0">
                    <mxGeometry width="1100.33" height="850" as="geometry"/>
                </mxCell>
                <mxCell id="18" value="" style="group;movable=0;resizable=0;rotatable=0;deletable=0;editable=0;connectable=0;" parent="9" vertex="1" connectable="0">
                    <mxGeometry width="1100" height="850" as="geometry"/>
                </mxCell>
                <mxCell id="19" value="" style="group" parent="18" vertex="1" connectable="0">
                    <mxGeometry width="1100" height="850" as="geometry"/>
                </mxCell>
                <mxCell id="20" value="" style="group" parent="19" vertex="1" connectable="0">
                    <mxGeometry width="1100" height="850" as="geometry"/>
                </mxCell>
                <mxCell id="21" value="" style="group" parent="20" vertex="1" connectable="0">
                    <mxGeometry width="1100" height="850" as="geometry"/>
                </mxCell>
                <mxCell id="22" value="" style="group;movable=0;resizable=0;rotatable=0;deletable=0;editable=0;connectable=0;" parent="21" vertex="1" connectable="0">
                    <mxGeometry width="1100" height="850" as="geometry"/>
                </mxCell>
                <mxCell id="23" value="" style="group;movable=0;resizable=0;rotatable=0;deletable=0;editable=0;connectable=0;" parent="22" vertex="1" connectable="0">
                    <mxGeometry width="1100" height="850" as="geometry"/>
                </mxCell>
                <mxCell id="24" value="" style="group;movable=0;resizable=0;rotatable=0;deletable=0;editable=0;connectable=0;" parent="23" vertex="1" connectable="0">
                    <mxGeometry width="1100" height="850" as="geometry"/>
                </mxCell>
                <mxCell id="11" value="Customer" style="swimlane;movable=1;resizable=1;rotatable=1;deletable=1;editable=1;connectable=1;" parent="24" vertex="1">
                    <mxGeometry width="240" height="420" as="geometry"/>
                </mxCell>
                <mxCell id="25" value="Uploads&lt;br&gt;Invoice&lt;br&gt;PDF &amp;amp; XML" style="points=[[0.25,0,0],[0.5,0,0],[0.75,0,0],[1,0.25,0],[1,0.5,0],[1,0.75,0],[0.75,1,0],[0.5,1,0],[0.25,1,0],[0,0.75,0],[0,0.5,0],[0,0.25,0]];shape=mxgraph.bpmn.task;whiteSpace=wrap;rectStyle=rounded;size=10;html=1;taskMarker=abstract;fillColor=#008a00;fontColor=#ffffff;strokeColor=#005700;" parent="11" vertex="1">
                    <mxGeometry x="120" y="300" width="100" height="80" as="geometry"/>
                </mxCell>
                <mxCell id="103" value="Customer&lt;br&gt;Logs In" style="points=[[0.25,0,0],[0.5,0,0],[0.75,0,0],[1,0.25,0],[1,0.5,0],[1,0.75,0],[0.75,1,0],[0.5,1,0],[0.25,1,0],[0,0.75,0],[0,0.5,0],[0,0.25,0]];shape=mxgraph.bpmn.task;whiteSpace=wrap;rectStyle=rounded;size=10;html=1;taskMarker=abstract;fillColor=#1ba1e2;fontColor=#ffffff;strokeColor=#006EAF;" parent="11" vertex="1">
                    <mxGeometry x="25" y="190" width="120" height="60" as="geometry"/>
                </mxCell>
                <mxCell id="104" value="Opens &lt;br&gt;Results &lt;br&gt;Dashboard" style="points=[[0.25,0,0],[0.5,0,0],[0.75,0,0],[1,0.25,0],[1,0.5,0],[1,0.75,0],[0.75,1,0],[0.5,1,0],[0.25,1,0],[0,0.75,0],[0,0.5,0],[0,0.25,0]];shape=mxgraph.bpmn.task;whiteSpace=wrap;rectStyle=rounded;size=10;html=1;taskMarker=abstract;fillColor=#e3c800;fontColor=#000000;strokeColor=#B09500;" parent="11" vertex="1">
                    <mxGeometry x="130" y="70" width="90" height="80" as="geometry"/>
                </mxCell>
                <mxCell id="106" value="" style="edgeStyle=segmentEdgeStyle;endArrow=classic;html=1;curved=0;rounded=0;endSize=8;startSize=8;exitX=0.5;exitY=1;exitDx=0;exitDy=0;exitPerimeter=0;entryX=0;entryY=0.5;entryDx=0;entryDy=0;entryPerimeter=0;" parent="11" source="103" target="25" edge="1">
                    <mxGeometry width="50" height="50" relative="1" as="geometry">
                        <mxPoint x="570" y="440" as="sourcePoint"/>
                        <mxPoint x="620" y="390" as="targetPoint"/>
                        <Array as="points">
                            <mxPoint x="85" y="340"/>
                        </Array>
                    </mxGeometry>
                </mxCell>
                <mxCell id="107" value="" style="edgeStyle=segmentEdgeStyle;endArrow=classic;html=1;curved=0;rounded=0;endSize=8;startSize=8;exitX=0.5;exitY=0;exitDx=0;exitDy=0;exitPerimeter=0;entryX=0;entryY=0.5;entryDx=0;entryDy=0;entryPerimeter=0;" parent="11" source="103" target="104" edge="1">
                    <mxGeometry width="50" height="50" relative="1" as="geometry">
                        <mxPoint x="95" y="260" as="sourcePoint"/>
                        <mxPoint x="110" y="350" as="targetPoint"/>
                        <Array as="points">
                            <mxPoint x="85" y="110"/>
                        </Array>
                    </mxGeometry>
                </mxCell>
                <mxCell id="12" value="Frontend" style="swimlane;movable=1;resizable=1;rotatable=1;deletable=1;editable=1;connectable=1;" parent="24" vertex="1">
                    <mxGeometry x="240" width="230" height="850" as="geometry"/>
                </mxCell>
                <mxCell id="27" value="Validates Uploaded Documents" style="points=[[0.25,0,0],[0.5,0,0],[0.75,0,0],[1,0.25,0],[1,0.5,0],[1,0.75,0],[0.75,1,0],[0.5,1,0],[0.25,1,0],[0,0.75,0],[0,0.5,0],[0,0.25,0]];shape=mxgraph.bpmn.task;whiteSpace=wrap;rectStyle=rounded;size=10;html=1;taskMarker=abstract;fillColor=#008a00;fontColor=#ffffff;strokeColor=#005700;" parent="12" vertex="1">
                    <mxGeometry x="55.00000000000001" y="400" width="120" height="80" as="geometry"/>
                </mxCell>
                <mxCell id="118" value="Renders&lt;br&gt;Dashboard" style="rounded=1;whiteSpace=wrap;html=1;fillColor=#e3c800;fontColor=#000000;strokeColor=#B09500;" parent="12" vertex="1">
                    <mxGeometry x="55" y="190" width="120" height="60" as="geometry"/>
                </mxCell>
                <mxCell id="133" value="" style="sketch=0;pointerEvents=1;shadow=0;dashed=0;html=1;strokeColor=#56517e;fillColor=#d0cee2;aspect=fixed;labelPosition=center;verticalLabelPosition=bottom;verticalAlign=top;align=center;outlineConnect=0;shape=mxgraph.vvd.web_browser;" vertex="1" parent="12">
                    <mxGeometry x="60" y="724.2" width="110" height="78.1" as="geometry"/>
                </mxCell>
                <mxCell id="13" value="Backend" style="swimlane;movable=1;resizable=1;rotatable=1;deletable=1;editable=1;connectable=1;" parent="24" vertex="1">
                    <mxGeometry x="470" width="370" height="850" as="geometry"/>
                </mxCell>
                <mxCell id="33" value="Validates Uploaded Documents" style="points=[[0.25,0,0],[0.5,0,0],[0.75,0,0],[1,0.25,0],[1,0.5,0],[1,0.75,0],[0.75,1,0],[0.5,1,0],[0.25,1,0],[0,0.75,0],[0,0.5,0],[0,0.25,0]];shape=mxgraph.bpmn.task;whiteSpace=wrap;rectStyle=rounded;size=10;html=1;taskMarker=abstract;fillColor=#008a00;fontColor=#ffffff;strokeColor=#005700;" parent="13" vertex="1">
                    <mxGeometry x="45.08" y="400" width="120" height="80" as="geometry"/>
                </mxCell>
                <mxCell id="109" value="Performs a&lt;br&gt;Request" style="rounded=1;whiteSpace=wrap;html=1;fillColor=#e3c800;fontColor=#000000;strokeColor=#B09500;" parent="13" vertex="1">
                    <mxGeometry x="125.00000000000003" y="80" width="120" height="60" as="geometry"/>
                </mxCell>
                <mxCell id="115" value="Creates&lt;br&gt;Dashboard" style="rounded=1;whiteSpace=wrap;html=1;fillColor=#e3c800;fontColor=#000000;strokeColor=#B09500;" parent="13" vertex="1">
                    <mxGeometry x="125" y="190" width="120" height="60" as="geometry"/>
                </mxCell>
                <mxCell id="117" value="" style="endArrow=classic;html=1;exitX=0.5;exitY=1;exitDx=0;exitDy=0;entryX=0.5;entryY=0;entryDx=0;entryDy=0;" parent="13" source="109" target="115" edge="1">
                    <mxGeometry width="50" height="50" relative="1" as="geometry">
                        <mxPoint x="100" y="430" as="sourcePoint"/>
                        <mxPoint x="150" y="380" as="targetPoint"/>
                    </mxGeometry>
                </mxCell>
                <mxCell id="121" value="Encrypts&lt;br&gt;Data" style="points=[[0.25,0,0],[0.5,0,0],[0.75,0,0],[1,0.25,0],[1,0.5,0],[1,0.75,0],[0.75,1,0],[0.5,1,0],[0.25,1,0],[0,0.75,0],[0,0.5,0],[0,0.25,0]];shape=mxgraph.bpmn.task;whiteSpace=wrap;rectStyle=rounded;size=10;html=1;taskMarker=abstract;fillColor=#008a00;fontColor=#ffffff;strokeColor=#005700;" parent="13" vertex="1">
                    <mxGeometry x="224.91999999999996" y="400" width="120" height="80" as="geometry"/>
                </mxCell>
                <mxCell id="122" value="" style="edgeStyle=none;html=1;entryX=0;entryY=0.5;entryDx=0;entryDy=0;entryPerimeter=0;exitX=1;exitY=0.5;exitDx=0;exitDy=0;exitPerimeter=0;" parent="13" source="33" target="121" edge="1">
                    <mxGeometry relative="1" as="geometry">
                        <mxPoint x="354.9200000000001" y="450" as="sourcePoint"/>
                        <mxPoint x="437.3600000000001" y="449.4100000000001" as="targetPoint"/>
                    </mxGeometry>
                </mxCell>
                <mxCell id="130" value="" style="sketch=0;outlineConnect=0;fillColor=#008a00;strokeColor=#005700;dashed=0;verticalLabelPosition=bottom;verticalAlign=top;align=center;html=1;fontSize=12;fontStyle=0;aspect=fixed;pointerEvents=1;shape=mxgraph.aws4.iot_thing_industrial_pc;fontColor=#ffffff;" vertex="1" parent="13">
                    <mxGeometry x="140" y="720" width="90" height="90" as="geometry"/>
                </mxCell>
                <mxCell id="14" value="Database" style="swimlane;movable=0;resizable=0;rotatable=0;deletable=0;editable=0;connectable=0;" parent="24" vertex="1">
                    <mxGeometry x="840" width="260" height="850" as="geometry"/>
                </mxCell>
                <mxCell id="70" value="" style="edgeStyle=none;html=1;startArrow=classic;startFill=1;exitX=0.5;exitY=0;exitDx=0;exitDy=0;exitPerimeter=0;" parent="14" source="127" target="69" edge="1">
                    <mxGeometry relative="1" as="geometry">
                        <mxPoint x="130" y="305" as="sourcePoint"/>
                    </mxGeometry>
                </mxCell>
                <mxCell id="69" value="Updates&lt;br&gt;Invoices_matches table" style="points=[[0.25,0,0],[0.5,0,0],[0.75,0,0],[1,0.25,0],[1,0.5,0],[1,0.75,0],[0.75,1,0],[0.5,1,0],[0.25,1,0],[0,0.75,0],[0,0.5,0],[0,0.25,0]];shape=mxgraph.bpmn.task;whiteSpace=wrap;rectStyle=rounded;size=10;html=1;taskMarker=abstract;fillColor=#647687;fontColor=#ffffff;strokeColor=#314354;" parent="14" vertex="1">
                    <mxGeometry x="70" y="210" width="120" height="70" as="geometry"/>
                </mxCell>
                <mxCell id="127" value="Data is&lt;br&gt;Stored" style="shape=cylinder3;whiteSpace=wrap;html=1;boundedLbl=1;backgroundOutline=1;size=15;fillColor=#647687;fontColor=#ffffff;strokeColor=#314354;" vertex="1" parent="14">
                    <mxGeometry x="70" y="350" width="120" height="180" as="geometry"/>
                </mxCell>
                <mxCell id="132" value="" style="aspect=fixed;perimeter=ellipsePerimeter;html=1;align=center;shadow=0;dashed=0;spacingTop=3;image;image=img/lib/active_directory/database.svg;" vertex="1" parent="14">
                    <mxGeometry x="90" y="730" width="80" height="59.2" as="geometry"/>
                </mxCell>
                <mxCell id="28" value="" style="edgeStyle=none;html=1;entryX=0;entryY=0.25;entryDx=0;entryDy=0;entryPerimeter=0;" parent="24" source="25" target="27" edge="1">
                    <mxGeometry relative="1" as="geometry"/>
                </mxCell>
                <mxCell id="34" value="" style="edgeStyle=none;html=1;" parent="24" source="27" target="33" edge="1">
                    <mxGeometry relative="1" as="geometry"/>
                </mxCell>
                <mxCell id="55" value="Hapag-Lloyd AP" style="swimlane;movable=1;resizable=1;rotatable=1;deletable=1;editable=1;connectable=1;" parent="24" vertex="1">
                    <mxGeometry y="420" width="240" height="430" as="geometry"/>
                </mxCell>
                <mxCell id="56" value="Uploads&lt;br&gt;Invoice&lt;br&gt;PDF &amp;amp; XML" style="points=[[0.25,0,0],[0.5,0,0],[0.75,0,0],[1,0.25,0],[1,0.5,0],[1,0.75,0],[0.75,1,0],[0.5,1,0],[0.25,1,0],[0,0.75,0],[0,0.5,0],[0,0.25,0]];shape=mxgraph.bpmn.task;whiteSpace=wrap;rectStyle=rounded;size=10;html=1;taskMarker=abstract;fillColor=#e51400;fontColor=#ffffff;strokeColor=#B20000;" parent="55" vertex="1">
                    <mxGeometry x="120" y="60" width="100" height="80" as="geometry"/>
                </mxCell>
                <mxCell id="123" value="HL&lt;br&gt;Employee&lt;br&gt;Logs In" style="points=[[0.25,0,0],[0.5,0,0],[0.75,0,0],[1,0.25,0],[1,0.5,0],[1,0.75,0],[0.75,1,0],[0.5,1,0],[0.25,1,0],[0,0.75,0],[0,0.5,0],[0,0.25,0]];shape=mxgraph.bpmn.task;whiteSpace=wrap;rectStyle=rounded;size=10;html=1;taskMarker=abstract;fillColor=#a20025;fontColor=#ffffff;strokeColor=#6F0000;" parent="55" vertex="1">
                    <mxGeometry x="10" y="170" width="120" height="60" as="geometry"/>
                </mxCell>
                <mxCell id="124" value="" style="edgeStyle=segmentEdgeStyle;endArrow=classic;html=1;curved=0;rounded=0;endSize=8;startSize=8;exitX=0.5;exitY=0;exitDx=0;exitDy=0;exitPerimeter=0;entryX=0;entryY=0.5;entryDx=0;entryDy=0;entryPerimeter=0;" parent="55" source="123" target="56" edge="1">
                    <mxGeometry width="50" height="50" relative="1" as="geometry">
                        <mxPoint x="95" y="-160" as="sourcePoint"/>
                        <mxPoint x="130" y="-70" as="targetPoint"/>
                        <Array as="points">
                            <mxPoint x="70" y="100"/>
                        </Array>
                    </mxGeometry>
                </mxCell>
                <mxCell id="129" value="" style="fontColor=#0066CC;verticalAlign=top;verticalLabelPosition=bottom;labelPosition=center;align=center;html=1;outlineConnect=0;fillColor=#CCCCCC;strokeColor=#6881B3;gradientColor=none;gradientDirection=north;strokeWidth=2;shape=mxgraph.networks.pc;" vertex="1" parent="55">
                    <mxGeometry x="60" y="310" width="100" height="70" as="geometry"/>
                </mxCell>
                <mxCell id="43" value="" style="edgeStyle=none;html=1;exitX=1;exitY=0.5;exitDx=0;exitDy=0;exitPerimeter=0;entryX=0;entryY=0.5;entryDx=0;entryDy=0;entryPerimeter=0;" parent="24" source="121" edge="1">
                    <mxGeometry relative="1" as="geometry">
                        <mxPoint x="910" y="440" as="targetPoint"/>
                    </mxGeometry>
                </mxCell>
                <mxCell id="110" value="" style="endArrow=classic;html=1;exitX=1;exitY=0.5;exitDx=0;exitDy=0;exitPerimeter=0;entryX=0;entryY=0.5;entryDx=0;entryDy=0;" parent="24" source="104" target="109" edge="1">
                    <mxGeometry width="50" height="50" relative="1" as="geometry">
                        <mxPoint x="570" y="440" as="sourcePoint"/>
                        <mxPoint x="620" y="390" as="targetPoint"/>
                    </mxGeometry>
                </mxCell>
                <mxCell id="111" value="" style="endArrow=classic;html=1;exitX=1;exitY=0.5;exitDx=0;exitDy=0;startArrow=classic;startFill=1;entryX=0;entryY=0;entryDx=0;entryDy=52.5;entryPerimeter=0;" parent="24" source="109" target="127" edge="1">
                    <mxGeometry width="50" height="50" relative="1" as="geometry">
                        <mxPoint x="570" y="430" as="sourcePoint"/>
                        <mxPoint x="910" y="373" as="targetPoint"/>
                    </mxGeometry>
                </mxCell>
                <mxCell id="119" value="" style="endArrow=classic;html=1;exitX=0;exitY=0.5;exitDx=0;exitDy=0;entryX=1;entryY=0.5;entryDx=0;entryDy=0;" parent="24" source="115" target="118" edge="1">
                    <mxGeometry width="50" height="50" relative="1" as="geometry">
                        <mxPoint x="570" y="430" as="sourcePoint"/>
                        <mxPoint x="620" y="380" as="targetPoint"/>
                    </mxGeometry>
                </mxCell>
                <mxCell id="120" value="" style="endArrow=classic;html=1;exitX=0;exitY=0.5;exitDx=0;exitDy=0;entryX=1;entryY=0.5;entryDx=0;entryDy=0;entryPerimeter=0;" parent="24" source="118" target="103" edge="1">
                    <mxGeometry width="50" height="50" relative="1" as="geometry">
                        <mxPoint x="300" y="219.5" as="sourcePoint"/>
                        <mxPoint x="120" y="219.5" as="targetPoint"/>
                    </mxGeometry>
                </mxCell>
                <mxCell id="126" value="" style="edgeStyle=none;html=1;exitX=1;exitY=0.5;exitDx=0;exitDy=0;exitPerimeter=0;entryX=0.019;entryY=0.642;entryDx=0;entryDy=0;entryPerimeter=0;" parent="24" source="56" target="27" edge="1">
                    <mxGeometry relative="1" as="geometry">
                        <mxPoint x="230" y="375.7142857142858" as="sourcePoint"/>
                        <mxPoint x="280" y="450" as="targetPoint"/>
                    </mxGeometry>
                </mxCell>
                <mxCell id="128" value="" style="edgeStyle=none;html=1;" edge="1" parent="24" target="121">
                    <mxGeometry relative="1" as="geometry">
                        <mxPoint x="910" y="440" as="sourcePoint"/>
                    </mxGeometry>
                </mxCell>
            </root>
        </mxGraphModel>
    </diagram>
</mxfile>